<mxfile host="app.diagrams.net" modified="2023-08-18T03:32:08.801Z" agent="Mozilla/5.0 (Macintosh; Intel Mac OS X 10_15_7) AppleWebKit/537.36 (KHTML, like Gecko) Chrome/115.0.0.0 Safari/537.36" version="21.6.1" etag="RYpY1pL4n7y1btGnQbmP" type="github">
  <diagram name="Page-1" id="tdBttEEve8qmD0l1JG_w">
    <mxGraphModel>
      <root>
        <mxCell id="0" />
        <mxCell id="1" parent="0" />
      </root>
    </mxGraphModel>
  </diagram>
</mxfile>
